<mxfile host="app.diagrams.net" modified="2023-05-28T21:52:23.883Z" agent="Mozilla/5.0 (Windows NT 10.0; Win64; x64) AppleWebKit/537.36 (KHTML, like Gecko) Chrome/110.0.0.0 YaBrowser/23.3.4.603 Yowser/2.5 Safari/537.36" etag="S5WCfniDeRBpV_foKIga" version="21.3.5" type="device">
  <diagram id="GVY1Cx13aOqmUWzAVSx1" name="Страница 1">
    <mxGraphModel dx="1434" dy="767" grid="1" gridSize="10" guides="1" tooltips="1" connect="1" arrows="1" fold="1" page="1" pageScale="1" pageWidth="827" pageHeight="1169" math="0" shadow="0">
      <root>
        <mxCell id="0" />
        <mxCell id="1" parent="0" />
        <mxCell id="g7WuXm0LN7FkeReLc3s9-68" value="" style="rounded=0;whiteSpace=wrap;html=1;labelBackgroundColor=none;fontSize=10;strokeColor=none;" parent="1" vertex="1">
          <mxGeometry x="50" width="540" height="480" as="geometry" />
        </mxCell>
        <mxCell id="V3omc4vaJzPRS-x-TyVO-3" value="Пользователь" style="shape=umlActor;verticalLabelPosition=bottom;verticalAlign=top;html=1;outlineConnect=0;" parent="1" vertex="1">
          <mxGeometry x="90" y="290" width="30" height="60" as="geometry" />
        </mxCell>
        <mxCell id="g7WuXm0LN7FkeReLc3s9-6" value="" style="rounded=0;whiteSpace=wrap;html=1;movable=1;resizable=1;rotatable=1;deletable=1;editable=1;connectable=1;" parent="1" vertex="1">
          <mxGeometry x="190" y="20" width="380" height="430" as="geometry" />
        </mxCell>
        <mxCell id="g7WuXm0LN7FkeReLc3s9-7" value="Система поиска шаблонов в данных успеваемости студентов" style="text;html=1;strokeColor=none;fillColor=none;align=center;verticalAlign=middle;whiteSpace=wrap;rounded=0;" parent="1" vertex="1">
          <mxGeometry x="155" y="20" width="440" height="30" as="geometry" />
        </mxCell>
        <mxCell id="g7WuXm0LN7FkeReLc3s9-60" value="&lt;font style=&quot;font-size: 10px;&quot;&gt;Выполнить фильтрацию найденных&lt;br&gt;правил&amp;nbsp;&lt;/font&gt;" style="ellipse;whiteSpace=wrap;html=1;movable=1;resizable=1;rotatable=1;deletable=1;editable=1;connectable=1;container=0;" parent="1" vertex="1">
          <mxGeometry x="440" y="370" width="110" height="60" as="geometry" />
        </mxCell>
        <mxCell id="g7WuXm0LN7FkeReLc3s9-63" value="" style="endArrow=classic;html=1;rounded=0;dashed=1;jumpStyle=arc;exitX=0;exitY=0.5;exitDx=0;exitDy=0;entryX=1;entryY=0.5;entryDx=0;entryDy=0;" parent="1" source="g7WuXm0LN7FkeReLc3s9-60" target="g7WuXm0LN7FkeReLc3s9-18" edge="1">
          <mxGeometry width="50" height="50" relative="1" as="geometry">
            <mxPoint x="470" y="210" as="sourcePoint" />
            <mxPoint x="333" y="365" as="targetPoint" />
          </mxGeometry>
        </mxCell>
        <mxCell id="g7WuXm0LN7FkeReLc3s9-66" value="&amp;lt;&amp;lt;Extend&amp;gt;&amp;gt;" style="text;html=1;strokeColor=none;fillColor=none;align=center;verticalAlign=middle;whiteSpace=wrap;rounded=0;labelBackgroundColor=none;movable=1;resizable=1;rotatable=1;deletable=1;editable=1;connectable=1;container=0;" parent="1" vertex="1">
          <mxGeometry x="354" y="370" width="60" height="30" as="geometry" />
        </mxCell>
        <mxCell id="g7WuXm0LN7FkeReLc3s9-9" value="&lt;font style=&quot;font-size: 10px;&quot;&gt;Запросить и загрузить данные из Универис&lt;br&gt;&lt;/font&gt;" style="ellipse;whiteSpace=wrap;html=1;movable=1;resizable=1;rotatable=1;deletable=1;editable=1;connectable=1;container=0;" parent="1" vertex="1">
          <mxGeometry x="210" y="60" width="110" height="60" as="geometry" />
        </mxCell>
        <mxCell id="g7WuXm0LN7FkeReLc3s9-8" value="&lt;font style=&quot;font-size: 10px;&quot;&gt;Выбрать параметры запрашиваемых данных&lt;/font&gt;" style="ellipse;whiteSpace=wrap;html=1;movable=1;resizable=1;rotatable=1;deletable=1;editable=1;connectable=1;container=0;" parent="1" vertex="1">
          <mxGeometry x="440" y="60" width="110" height="60" as="geometry" />
        </mxCell>
        <mxCell id="wSM0-PSKl1Bv0HwFciYE-1" value="" style="endArrow=none;html=1;rounded=0;fontSize=10;jumpStyle=arc;entryX=0;entryY=0.5;entryDx=0;entryDy=0;" parent="1" source="V3omc4vaJzPRS-x-TyVO-3" target="g7WuXm0LN7FkeReLc3s9-18" edge="1">
          <mxGeometry width="50" height="50" relative="1" as="geometry">
            <mxPoint x="160" y="210" as="sourcePoint" />
            <mxPoint x="212" y="256" as="targetPoint" />
          </mxGeometry>
        </mxCell>
        <mxCell id="g7WuXm0LN7FkeReLc3s9-59" value="&amp;lt;&amp;lt;Extend&amp;gt;&amp;gt;" style="text;html=1;strokeColor=none;fillColor=none;align=center;verticalAlign=middle;whiteSpace=wrap;rounded=0;labelBackgroundColor=none;movable=1;resizable=1;rotatable=1;deletable=1;editable=1;connectable=1;container=0;" parent="1" vertex="1">
          <mxGeometry x="354" y="245" width="60" height="30" as="geometry" />
        </mxCell>
        <mxCell id="g7WuXm0LN7FkeReLc3s9-27" value="" style="group" parent="1" vertex="1" connectable="0">
          <mxGeometry x="110" y="200" width="490" height="170" as="geometry" />
        </mxCell>
        <mxCell id="g7WuXm0LN7FkeReLc3s9-10" value="&lt;font style=&quot;font-size: 10px;&quot;&gt;Выполнить поиск ассоциативных&amp;nbsp; правил&lt;/font&gt;" style="ellipse;whiteSpace=wrap;html=1;movable=1;resizable=1;rotatable=1;deletable=1;editable=1;connectable=1;container=0;" parent="g7WuXm0LN7FkeReLc3s9-27" vertex="1">
          <mxGeometry x="100" y="20" width="110" height="60" as="geometry" />
        </mxCell>
        <mxCell id="g7WuXm0LN7FkeReLc3s9-47" value="&amp;lt;&amp;lt;Include&amp;gt;&amp;gt;" style="text;html=1;strokeColor=none;fillColor=none;align=center;verticalAlign=middle;whiteSpace=wrap;rounded=0;labelBackgroundColor=none;movable=1;resizable=1;rotatable=1;deletable=1;editable=1;connectable=1;container=0;" parent="g7WuXm0LN7FkeReLc3s9-27" vertex="1">
          <mxGeometry x="90" y="110" width="60" height="30" as="geometry" />
        </mxCell>
        <mxCell id="g7WuXm0LN7FkeReLc3s9-61" value="&amp;lt;&amp;lt;Extend&amp;gt;&amp;gt;" style="text;html=1;strokeColor=none;fillColor=none;align=center;verticalAlign=middle;whiteSpace=wrap;rounded=0;labelBackgroundColor=none;movable=1;resizable=1;rotatable=1;deletable=1;editable=1;connectable=1;container=0;" parent="g7WuXm0LN7FkeReLc3s9-27" vertex="1">
          <mxGeometry x="210" y="10" width="60" height="30" as="geometry" />
        </mxCell>
        <mxCell id="g7WuXm0LN7FkeReLc3s9-64" value="&lt;font style=&quot;font-size: 10px;&quot;&gt;Экспортировать правила&lt;/font&gt;" style="ellipse;whiteSpace=wrap;html=1;" parent="g7WuXm0LN7FkeReLc3s9-27" vertex="1">
          <mxGeometry x="330" y="95" width="110" height="60" as="geometry" />
        </mxCell>
        <mxCell id="g7WuXm0LN7FkeReLc3s9-65" value="" style="endArrow=classic;html=1;rounded=0;dashed=1;movable=1;resizable=1;rotatable=1;deletable=1;editable=1;connectable=1;exitX=0;exitY=0.5;exitDx=0;exitDy=0;entryX=0.821;entryY=0.917;entryDx=0;entryDy=0;entryPerimeter=0;" parent="g7WuXm0LN7FkeReLc3s9-27" source="g7WuXm0LN7FkeReLc3s9-64" target="g7WuXm0LN7FkeReLc3s9-10" edge="1">
          <mxGeometry width="50" height="50" relative="1" as="geometry">
            <mxPoint x="300.0000000000016" y="176.84000000000003" as="sourcePoint" />
            <mxPoint x="199.21000000000004" y="110" as="targetPoint" />
          </mxGeometry>
        </mxCell>
        <mxCell id="g7WuXm0LN7FkeReLc3s9-48" value="&lt;font style=&quot;font-size: 10px;&quot;&gt;Выбрать пороговые критерии поиска правил&lt;/font&gt;" style="ellipse;whiteSpace=wrap;html=1;" parent="g7WuXm0LN7FkeReLc3s9-27" vertex="1">
          <mxGeometry x="330" y="20" width="110" height="60" as="geometry" />
        </mxCell>
        <mxCell id="houyPT9DmbksmY75sdCT-15" value="" style="endArrow=classic;html=1;rounded=0;dashed=1;movable=1;resizable=1;rotatable=1;deletable=1;editable=1;connectable=1;exitX=0;exitY=0.5;exitDx=0;exitDy=0;entryX=1;entryY=0.5;entryDx=0;entryDy=0;" parent="g7WuXm0LN7FkeReLc3s9-27" source="g7WuXm0LN7FkeReLc3s9-48" target="g7WuXm0LN7FkeReLc3s9-10" edge="1">
          <mxGeometry width="50" height="50" relative="1" as="geometry">
            <mxPoint x="356" y="109" as="sourcePoint" />
            <mxPoint x="200" y="85" as="targetPoint" />
          </mxGeometry>
        </mxCell>
        <mxCell id="houyPT9DmbksmY75sdCT-14" value="&amp;lt;&amp;lt;Extend&amp;gt;&amp;gt;" style="text;html=1;strokeColor=none;fillColor=none;align=center;verticalAlign=middle;whiteSpace=wrap;rounded=0;labelBackgroundColor=none;movable=1;resizable=1;rotatable=1;deletable=1;editable=1;connectable=1;container=0;" parent="g7WuXm0LN7FkeReLc3s9-27" vertex="1">
          <mxGeometry x="215" y="110" width="60" height="30" as="geometry" />
        </mxCell>
        <mxCell id="houyPT9DmbksmY75sdCT-2" value="&lt;font style=&quot;font-size: 10px;&quot;&gt;Экспортировать загруженные данные&lt;br&gt;&lt;/font&gt;" style="ellipse;whiteSpace=wrap;html=1;movable=1;resizable=1;rotatable=1;deletable=1;editable=1;connectable=1;container=0;" parent="1" vertex="1">
          <mxGeometry x="440" y="140" width="110" height="60" as="geometry" />
        </mxCell>
        <mxCell id="houyPT9DmbksmY75sdCT-5" value="&amp;lt;&amp;lt;Include&amp;gt;&amp;gt;" style="text;html=1;strokeColor=none;fillColor=none;align=center;verticalAlign=middle;whiteSpace=wrap;rounded=0;labelBackgroundColor=none;movable=1;resizable=1;rotatable=1;deletable=1;editable=1;connectable=1;container=0;" parent="1" vertex="1">
          <mxGeometry x="200" y="160" width="60" height="30" as="geometry" />
        </mxCell>
        <mxCell id="g7WuXm0LN7FkeReLc3s9-18" value="&lt;font style=&quot;font-size: 10px;&quot;&gt;Просмотр списка&lt;br&gt;ассоциативных&lt;br&gt;правил&lt;/font&gt;" style="ellipse;whiteSpace=wrap;html=1;" parent="1" vertex="1">
          <mxGeometry x="210" y="370" width="110" height="60" as="geometry" />
        </mxCell>
        <mxCell id="g7WuXm0LN7FkeReLc3s9-28" value="" style="endArrow=classic;html=1;rounded=0;dashed=1;jumpStyle=arc;edgeStyle=orthogonalEdgeStyle;entryX=0.5;entryY=1;entryDx=0;entryDy=0;exitX=0.5;exitY=0;exitDx=0;exitDy=0;" parent="1" source="g7WuXm0LN7FkeReLc3s9-18" target="g7WuXm0LN7FkeReLc3s9-10" edge="1">
          <mxGeometry width="50" height="50" relative="1" as="geometry">
            <mxPoint x="430" y="150" as="sourcePoint" />
            <mxPoint x="480" y="100" as="targetPoint" />
          </mxGeometry>
        </mxCell>
        <mxCell id="houyPT9DmbksmY75sdCT-11" value="&amp;lt;&amp;lt;Extend&amp;gt;&amp;gt;" style="text;html=1;strokeColor=none;fillColor=none;align=center;verticalAlign=middle;whiteSpace=wrap;rounded=0;labelBackgroundColor=none;movable=1;resizable=1;rotatable=1;deletable=1;editable=1;connectable=1;container=0;" parent="1" vertex="1">
          <mxGeometry x="360" y="100" width="60" height="30" as="geometry" />
        </mxCell>
        <mxCell id="houyPT9DmbksmY75sdCT-12" value="" style="endArrow=classic;html=1;rounded=0;dashed=1;exitX=0.076;exitY=0.256;exitDx=0;exitDy=0;entryX=1;entryY=1;entryDx=0;entryDy=0;movable=1;resizable=1;rotatable=1;deletable=1;editable=1;connectable=1;exitPerimeter=0;" parent="1" source="houyPT9DmbksmY75sdCT-2" target="g7WuXm0LN7FkeReLc3s9-9" edge="1">
          <mxGeometry width="50" height="50" relative="1" as="geometry">
            <mxPoint x="275" y="130" as="sourcePoint" />
            <mxPoint x="275" y="220" as="targetPoint" />
            <Array as="points" />
          </mxGeometry>
        </mxCell>
        <mxCell id="wSM0-PSKl1Bv0HwFciYE-4" value="&lt;font style=&quot;font-size: 10px;&quot;&gt;Загрузить другие экспортированные ранее&amp;nbsp;данные&lt;/font&gt;" style="ellipse;whiteSpace=wrap;html=1;" parent="1" vertex="1">
          <mxGeometry x="300" y="145" width="110" height="60" as="geometry" />
        </mxCell>
        <mxCell id="wSM0-PSKl1Bv0HwFciYE-5" value="" style="endArrow=classic;html=1;rounded=0;dashed=1;movable=1;resizable=1;rotatable=1;deletable=1;editable=1;connectable=1;exitX=0.205;exitY=0.948;exitDx=0;exitDy=0;entryX=1;entryY=0;entryDx=0;entryDy=0;exitPerimeter=0;" parent="1" source="wSM0-PSKl1Bv0HwFciYE-4" target="g7WuXm0LN7FkeReLc3s9-10" edge="1">
          <mxGeometry width="50" height="50" relative="1" as="geometry">
            <mxPoint x="350" y="260" as="sourcePoint" />
            <mxPoint x="322.5" y="270" as="targetPoint" />
          </mxGeometry>
        </mxCell>
        <mxCell id="houyPT9DmbksmY75sdCT-9" value="" style="endArrow=classic;html=1;rounded=0;dashed=1;exitX=0.5;exitY=0;exitDx=0;exitDy=0;entryX=0.5;entryY=1;entryDx=0;entryDy=0;movable=1;resizable=1;rotatable=1;deletable=1;editable=1;connectable=1;" parent="1" source="g7WuXm0LN7FkeReLc3s9-10" target="g7WuXm0LN7FkeReLc3s9-9" edge="1">
          <mxGeometry width="50" height="50" relative="1" as="geometry">
            <mxPoint x="275" y="130" as="sourcePoint" />
            <mxPoint x="365" y="150" as="targetPoint" />
            <Array as="points" />
          </mxGeometry>
        </mxCell>
        <mxCell id="mJ32Ho0l_u0nLUMJsvM3-1" value="" style="endArrow=classic;html=1;rounded=0;dashed=1;exitX=1;exitY=0.5;exitDx=0;exitDy=0;entryX=0;entryY=0.5;entryDx=0;entryDy=0;movable=1;resizable=1;rotatable=1;deletable=1;editable=1;connectable=1;" edge="1" parent="1" source="g7WuXm0LN7FkeReLc3s9-9" target="g7WuXm0LN7FkeReLc3s9-8">
          <mxGeometry width="50" height="50" relative="1" as="geometry">
            <mxPoint x="275" y="230" as="sourcePoint" />
            <mxPoint x="275" y="130" as="targetPoint" />
            <Array as="points" />
          </mxGeometry>
        </mxCell>
        <mxCell id="mJ32Ho0l_u0nLUMJsvM3-2" value="&amp;lt;&amp;lt;Include&amp;gt;&amp;gt;" style="text;html=1;strokeColor=none;fillColor=none;align=center;verticalAlign=middle;whiteSpace=wrap;rounded=0;labelBackgroundColor=none;movable=1;resizable=1;rotatable=1;deletable=1;editable=1;connectable=1;container=0;" vertex="1" parent="1">
          <mxGeometry x="345" y="60" width="60" height="30" as="geometry" />
        </mxCell>
      </root>
    </mxGraphModel>
  </diagram>
</mxfile>
